<?xml version="1.0" standalone="no"?>
<!DOCTYPE svg PUBLIC "-//W3C//DTD SVG 20010904//EN"
 "http://www.w3.org/TR/2001/REC-SVG-20010904/DTD/svg10.dtd">
<svg version="1.0" xmlns="http://www.w3.org/2000/svg"
 width="945.000000pt" height="945.000000pt" viewBox="0 0 945.000000 945.000000"
 preserveAspectRatio="xMidYMid meet">
<metadata>
Created by potrace 1.11, written by Peter Selinger 2001-2013
</metadata>
<g transform="translate(0.000000,945.000000) scale(0.100000,-0.100000)"
fill="#000000" stroke="none">
<path d="M684 7403 c3 -10 77 -279 166 -598 89 -319 237 -852 330 -1185 93
-333 351 -1262 575 -2065 223 -803 410 -1474 416 -1491 l10 -32 182 70 c336
128 600 250 885 409 449 252 919 594 1348 980 l131 118 94 -86 c590 -539 1290
-1006 1914 -1278 176 -77 534 -214 539 -206 2 3 261 931 576 2061 883 3171
920 3303 920 3312 0 4 -134 8 -298 8 l-299 0 -11 -37 c-6 -21 -263 -942 -571
-2048 -723 -2597 -701 -2519 -704 -2521 -6 -6 -326 160 -460 238 -179 104
-491 312 -669 446 -208 157 -604 493 -616 524 -2 4 39 56 90 115 488 564 798
1092 893 1523 26 117 31 357 10 482 -53 316 -188 582 -405 798 -548 547 -1425
556 -1982 21 -123 -118 -210 -232 -282 -371 -170 -327 -209 -694 -110 -1038
123 -428 419 -902 928 -1489 l36 -41 -152 -136 c-483 -427 -1013 -790 -1493
-1022 l-110 -54 -7 28 c-4 15 -293 1051 -642 2302 l-633 2275 -302 3 c-285 2
-302 1 -297 -15z m4246 -652 c164 -43 287 -117 407 -244 92 -98 150 -196 194
-327 44 -132 52 -294 19 -420 -84 -325 -346 -763 -719 -1200 l-104 -121 -21
24 c-12 14 -66 79 -121 144 -366 431 -621 869 -690 1187 -46 210 28 484 180
669 210 255 549 369 855 288z"/>
</g>
</svg>
