<svg xmlns="http://www.w3.org/2000/svg" preserveAspectRatio="xMidYMid" width="420" height="59" viewBox="0 0 420 59"><defs><style>.cls-2 { fill: #494847; }</style></defs><path d="M399.655 32.458v-5.64h20.34v22.146c-5.137 4.612-12.882 8.503-22.208 8.503-17.39 0-28.137-12.7-28.137-28.58v-.165c0-15.24 11.145-28.733 27.743-28.733 9.326 0 15.09 2.698 20.625 7.38l-4.032 4.768c-4.264-3.736-9.008-6.36-16.83-6.36-12.248 0-21.025 10.404-21.025 22.785v.16c0 13.266 8.46 23.107 21.896 23.107 6.32 0 12.17-2.458 15.96-5.554V32.458h-14.33zm-90.966-21.72v45.777h-6.25V.942h6.25l37.023 46.2V.94h6.242v55.573h-6.242L308.69 10.737zM272.36.94h6.24v55.573h-6.24V.942zm-38.23 56.825c-8.11-3.102-16.727-8.77-24.138-15.81-7.398 7.04-16.02 12.708-24.132 15.81l-3.178 1.218L166.594.942h6.433l13.773 49.68c6.402-2.975 13.02-7.565 18.86-13.1-4.162-4.607-11.032-13.32-10.95-20.56.04-4.096 1.64-7.94 4.502-10.826 2.877-2.906 6.706-4.51 10.782-4.51 4.08 0 7.913 1.604 10.79 4.51 2.858 2.887 4.46 6.73 4.503 10.827.08 7.24-6.792 15.952-10.954 20.558 5.845 5.537 12.458 10.127 18.864 13.1L246.97.943h6.433l-16.1 58.043-3.17-1.218zM219.095 17.03c-.053-5.058-4.138-9.18-9.1-9.18-4.957 0-9.036 4.122-9.088 9.18-.04 2.99 2.776 8.993 9.088 16.036 6.317-7.043 9.134-13.045 9.1-16.036zm-84.91 39.485h-6.325v-19.48L107.765.943h7.186L131.1 31.24 147.405.942h6.832L134.183 36.96v19.555zM90.566 41.808h-27.91l-6.07 14.707h-5.91L73.836.537h5.79l23.155 55.978h-6.187l-6.028-14.707zM76.66 7.843l-11.766 28.54H88.35L76.66 7.843zM17.07 57.31c-8.298 0-13.59-4.142-17.07-9.85l4.503-3.89c3.4 5.164 6.878 7.944 12.65 7.944 6.243 0 10.828-4.526 10.828-13.336V.942h6.322v37.153c0 6.51-1.897 11.433-5.058 14.606-3.084 3.018-7.27 4.61-12.173 4.61z" id="path-1" class="cls-2" fill-rule="evenodd"/></svg>