<?xml version="1.0" encoding="utf-8"?>
<!-- Generator: Adobe Illustrator 18.1.0, SVG Export Plug-In . SVG Version: 6.00 Build 0)  -->
<svg version="1.1" id="Layer_1" xmlns="http://www.w3.org/2000/svg" xmlns:xlink="http://www.w3.org/1999/xlink" x="0px" y="0px"
	 viewBox="0 0 470.627 65.81" enable-background="new 0 0 470.627 65.81" xml:space="preserve">
<path fill="#ffffff" d="M19.129,63.938c5.49,0,10.184-1.767,13.64-5.136c3.542-3.539,5.667-9.031,5.667-16.291V1.064H31.35v41.532
	c0,9.83-5.133,14.879-12.132,14.879c-6.464,0-10.361-3.098-14.17-8.856L0,52.959C3.9,59.33,9.83,63.938,19.129,63.938"/>
<polygon fill="#ffffff" points="143.274,63.056 150.359,63.056 150.359,41.244 172.832,1.063 165.176,1.063 146.904,34.866 
	128.812,1.063 120.757,1.063 143.274,41.33 "/>
<rect x="305.196" y="1.064" fill="#ffffff" width="6.996" height="61.991"/>
<path fill="#ffffff" d="M99.223,41.25H72.467l13.435-32.48L99.223,41.25z M115.172,63.056L89.222,0.619h-6.49l-25.95,62.437h6.63
	l6.549-15.753l31.752-0.003l6.522,15.756H115.172z"/>
<polygon fill="#ffffff" points="394.388,63.056 394.388,1.063 387.392,1.063 387.392,52.603 345.904,1.063 338.905,1.063 
	338.905,63.056 345.904,63.056 345.904,11.998 387.392,63.056 "/>
<path fill="#ffffff" d="M445.743,64.12c10.447,0,19.128-4.341,24.884-9.477V34.989h-22.785v6.288h16.056v10.349
	c-4.247,3.46-10.802,6.2-17.888,6.2c-15.06,0-24.533-10.976-24.533-25.768v-0.18c0-13.811,9.83-25.419,23.557-25.419
	c8.77,0,14.082,2.93,18.864,7.091l4.516-5.315C462.213,3.012,455.749,0,445.299,0c-18.598,0-31.084,15.055-31.084,32.058v0.177
	C414.215,49.952,426.259,64.12,445.743,64.12"/>
<path fill="#ffffff" d="M235.313,8.776c-5.557,0-10.13,4.593-10.192,10.235c-0.037,3.337,3.121,10.034,10.192,17.887
	c7.073-7.853,10.228-14.55,10.192-17.887C245.445,13.369,240.875,8.776,235.313,8.776 M265.914,65.81l-3.555-1.354
	c-9.09-3.463-18.75-9.784-27.046-17.63c-8.296,7.846-17.958,14.167-27.045,17.63l-3.557,1.354L186.675,1.067h7.211l15.432,55.415
	c7.177-3.314,14.588-8.437,21.132-14.615c-4.661-5.136-12.358-14.859-12.269-22.933c0.048-4.568,1.841-8.857,5.042-12.074
	c3.229-3.239,7.521-5.023,12.089-5.023c4.57,0,8.864,1.785,12.091,5.023c3.201,3.217,4.993,7.506,5.042,12.074
	c0.091,8.074-7.61,17.797-12.268,22.936c6.541,6.176,13.953,11.298,21.131,14.612l15.438-55.418h7.207L265.914,65.81z"/>
</svg>
